<svg id="Layer_1" enable-background="new 0 0 128 128" height="512" viewBox="0 0 128 128" width="512" xmlns="http://www.w3.org/2000/svg"><path d="m91.362 92.938c0-2.397-1.95-4.348-4.348-4.348h-7.22v-21.94h19.248c3.96 0 7.182-3.222 7.182-7.183v-37.462c.96-.014 1.856-.388 2.52-1.06.691-.683 1.072-1.6 1.072-2.58 0-.391-.061-.771-.178-1.121-.484-1.51-1.878-2.524-3.467-2.524h-23.124c.038-.12.076-.241.076-.374v-.717c0-.698-.571-1.27-1.27-1.27h-6.118c-.698 0-1.27.571-1.27 1.27v.717c0 .133.038.254.076.374h-23.123c-.98 0-1.896.381-2.572 1.065-.692.684-1.073 1.6-1.073 2.58 0 1.59 1.015 2.983 2.514 3.464.344.115.707.172 1.078.177v4.466c-2.033-1.601-4.59-2.565-7.373-2.565h-9.86c-6.588 0-11.948 5.36-11.948 11.948v17.247c0 1.786 1.256 3.351 2.922 3.64 1.05.183 2.108-.104 2.912-.778.805-.677 1.266-1.667 1.266-2.717v-17.062c0-.227.144-.435.321-.463.163-.033.264.033.327.087.052.044.14.142.14.301v43.835c-1.246-.455-2.585-.716-3.986-.716-6.436 0-11.671 5.235-11.671 11.671s5.235 11.672 11.671 11.672c3.83 0 7.225-1.863 9.355-4.722.691-.172 1.342-.492 1.877-.978.902-.819 1.419-1.988 1.419-3.206v-33.43c0-.26.137-.496.324-.596.19.102.329.341.329.596v33.43c0 1.218.517 2.387 1.419 3.206.799.727 1.845 1.126 2.922 1.126.138 0 .275-.007.413-.021 2.192-.209 3.91-2.166 3.91-4.455v-24.64-2.843-29.929c0-.158.087-.257.14-.301.063-.054.172-.114.329-.087.177.028.32.236.32.463v8.291c0 .955.375 1.85 1.057 2.519.417.409.922.689 1.467.853v11.62c0 3.961 3.222 7.183 7.182 7.183h19.249v21.94h-.181c-1.075-5.333-5.794-9.361-11.439-9.361-6.436 0-11.672 5.235-11.672 11.671s5.236 11.672 11.672 11.672c5.383 0 9.914-3.669 11.256-8.634h12.932c.549-.001.996-.448.996-1.001z" fill="#e6e7e8"/><path d="m38.897 23.593c4.343 0 7.876-3.533 7.876-7.876s-3.533-7.875-7.876-7.875-7.876 3.532-7.876 7.875 3.533 7.876 7.876 7.876z" fill="#e6e7e8"/><path d="m26.084 104.179c-8.374 0-15.188 6.813-15.188 15.188v3.792c0 .553.447 1 1 1h28.375c.553 0 1-.447 1-1v-3.792c.001-8.374-6.813-15.188-15.187-15.188z" fill="#e6e7e8"/><path d="m66.175 104.179c-8.375 0-15.188 6.813-15.188 15.188v3.792c0 .553.447 1 1 1h28.376c.553 0 1-.447 1-1v-3.792c-.001-8.374-6.814-15.188-15.188-15.188z" fill="#e6e7e8"/><path d="m94.244 90.9c0 6.436 5.236 11.672 11.672 11.672s11.671-5.236 11.671-11.672-5.235-11.671-11.671-11.671-11.672 5.236-11.672 11.671z" fill="#e6e7e8"/><path d="m105.916 104.179c-8.375 0-15.188 6.813-15.188 15.188v3.792c0 .553.447 1 1 1h28.376c.553 0 1-.447 1-1v-3.792c0-8.374-6.814-15.188-15.188-15.188z" fill="#e6e7e8"/><path d="m48.426 17.008-.062 38.46c0 3.414 2.768 6.182 6.182 6.182h40.497c3.414 0 6.182-2.768 6.182-6.182l.062-38.46z" fill="#ffd7e5"/><path d="m51.364 55.468.062-38.46h-3l-.062 38.46c0 3.414 2.768 6.182 6.182 6.182h3c-3.414 0-6.182-2.768-6.182-6.182z" fill="#fff"/><path d="m104.817 14.362c0 .731-.295 1.393-.776 1.869-.476.481-1.139.776-1.869.776h-54.754c-1.461 0-2.645-1.184-2.645-2.645 0-.731.295-1.393.776-1.869.476-.482 1.139-.776 1.869-.776h54.754c1.461 0 2.645 1.184 2.645 2.645z" fill="#fa759e"/><path d="m72.846 86.901c0 .697-.072 1.377-.199 2.037h13.716c0-1.849-1.499-3.347-3.347-3.347h-10.259c.053.43.089.865.089 1.31z" fill="#fa759e"/><path d="m88.145 40.876v-3.684c0-.314-.254-.568-.568-.568h-1.931c-.249 0-.471-.161-.542-.4-.196-.662-.46-1.294-.783-1.89-.119-.219-.076-.49.1-.667l1.366-1.366c.222-.222.222-.582 0-.804l-2.605-2.605c-.222-.222-.582-.222-.804 0l-1.366 1.366c-.176.176-.448.219-.667.1-.596-.323-1.228-.587-1.89-.783-.239-.071-.4-.293-.4-.542v-1.931c0-.314-.254-.568-.568-.568h-3.684c-.314 0-.568.254-.568.568v1.931c0 .249-.161.471-.4.542-.662.196-1.294.46-1.89.783-.219.119-.49.076-.667-.1l-1.366-1.366c-.222-.222-.582-.222-.804 0l-2.605 2.605c-.222.222-.222.582 0 .804l1.366 1.366c.176.176.219.448.1.667-.323.596-.587 1.228-.783 1.89-.071.239-.293.4-.542.4h-1.931c-.314 0-.568.254-.568.568v3.684c0 .314.254.568.568.568h1.931c.249 0 .471.161.542.4.196.662.46 1.294.783 1.89.119.219.076.49-.1.667l-1.366 1.366c-.222.222-.222.582 0 .804l2.605 2.605c.222.222.582.222.804 0l1.366-1.366c.176-.176.448-.219.667-.1.596.323 1.228.587 1.89.783.239.071.4.293.4.542v1.931c0 .314.254.568.568.568h3.684c.314 0 .568-.254.568-.568v-1.931c0-.249.161-.471.4-.542.662-.196 1.294-.46 1.89-.783.219-.119.49-.076.667.1l1.366 1.366c.222.222.582.222.804 0l2.605-2.605c.222-.222.222-.582 0-.804l-1.366-1.366c-.176-.176-.219-.448-.1-.667.323-.596.587-1.228.783-1.89.071-.239.293-.4.542-.4h1.931c.313.001.568-.254.568-.568zm-9.092-.38c-.162.393-.39.759-.681 1.072-1.064 1.146-2.888 1.505-4.307.847s-2.324-2.282-2.137-3.835c.186-1.544 1.434-2.898 2.957-3.212 1.543-.318 3.246.465 4.013 1.84.553.995.586 2.241.155 3.288z" fill="#0089ef"/><g fill="#6dc9f7"><circle cx="34.897" cy="11.717" r="6.876"/><path d="m57.529 37.614h-6.589v-5.759c0-6.046-4.902-10.948-10.948-10.948-1.056 0-8.805 0-9.861 0-6.046 0-10.948 4.901-10.948 10.948v17.248c0 1.262.849 2.438 2.093 2.654 1.609.28 3.006-.952 3.006-2.51v-17.062c0-.695.475-1.339 1.16-1.45.874-.142 1.629.529 1.629 1.375v45.358c3.38 1.791 5.685 5.34 5.685 9.432 0 2.252-.702 4.339-1.893 6.061 1.622-.225 2.872-1.611 2.872-3.295v-33.43c0-.78.533-1.503 1.303-1.629.013-.002.034-.002.047 0 .77.126 1.303.849 1.303 1.629v33.43c0 1.948 1.672 3.506 3.659 3.316 1.732-.165 3.005-1.719 3.005-3.46v-57.411c0-.847.755-1.518 1.629-1.375.686.111 1.16.755 1.16 1.45v8.292c0 1.425 1.172 2.562 2.603 2.534l.006.015h9.232c1.543 0 2.784-1.291 2.702-2.851-.077-1.465-1.39-2.562-2.855-2.562z"/><circle cx="22.084" cy="86.901" r="10.671"/><path d="m22.084 101.18c-7.836 0-14.188 6.352-14.188 14.188v3.792h28.376v-3.792c0-7.836-6.352-14.188-14.188-14.188z"/><ellipse cx="62.174" cy="86.901" rx="10.671" ry="10.671" transform="matrix(.099 -.995 .995 .099 -30.43 140.21)"/><path d="m62.175 101.18c-7.836 0-14.188 6.352-14.188 14.188v3.792h28.376v-3.792c-.001-7.836-6.353-14.188-14.188-14.188z"/><ellipse cx="101.916" cy="86.901" rx="10.671" ry="10.671" transform="matrix(.998 -.071 .071 .998 -5.904 7.443)"/><path d="m101.916 101.18c-7.836 0-14.188 6.352-14.188 14.188v3.792h28.376v-3.792c-.001-7.836-6.353-14.188-14.188-14.188z"/></g><path d="m75.644 16.011h-6.408c-.553 0-1 .447-1 1s.447 1 1 1h6.408c.553 0 1-.447 1-1s-.447-1-1-1z" fill="#3a2c60"/><path d="m87.362 88.938c0-2.397-1.95-4.348-4.348-4.348h-7.22v-21.94h19.248c3.961 0 7.183-3.222 7.183-7.18l.06-37.47c.937-.029 1.809-.397 2.458-1.054.692-.684 1.073-1.6 1.073-2.58 0-.389-.062-.769-.179-1.121-.484-1.51-1.878-2.524-3.467-2.524h-23.102c.021-.091.056-.177.056-.273v-.718c0-.698-.571-1.27-1.27-1.27h-6.118c-.698 0-1.27.571-1.27 1.27v.717c0 .097.035.182.056.273h-23.104c-.98 0-1.896.381-2.572 1.065-.692.684-1.073 1.6-1.073 2.58 0 1.589 1.015 2.982 2.514 3.463.363.121.743.183 1.132.183h.007l-.007 4.501c-2.041-1.626-4.619-2.605-7.426-2.605h-9.861c-6.588 0-11.948 5.36-11.948 11.948v17.247c0 1.786 1.256 3.351 2.922 3.64 1.051.181 2.108-.104 2.912-.778.805-.677 1.266-1.667 1.266-2.717v-17.062c0-.227.145-.435.32-.463.153-.024.265.033.328.087.052.045.14.143.14.302v43.834c-1.246-.455-2.585-.716-3.986-.716-6.436 0-11.671 5.236-11.671 11.672s5.235 11.672 11.671 11.672c3.828 0 7.22-1.861 9.35-4.716.694-.171 1.346-.496 1.882-.983.902-.82 1.419-1.988 1.419-3.206v-33.43c0-.261.137-.497.324-.597.192.101.328.337.328.597v33.43c0 1.218.517 2.387 1.419 3.206.901.819 2.112 1.229 3.336 1.105 2.192-.21 3.909-2.167 3.909-4.455v-24.642-2.843-29.928c0-.158.087-.257.14-.301.063-.055.175-.117.327-.088.178.028.322.236.322.463v8.292c0 .956.376 1.851 1.058 2.52.422.413.933.695 1.485.857l-.019 11.614c0 3.96 3.222 7.182 7.182 7.182h19.249v21.94h-.181c-1.075-5.333-5.795-9.361-11.439-9.361-6.436 0-11.672 5.236-11.672 11.672s5.236 11.672 11.672 11.672c5.384 0 9.914-3.669 11.256-8.635h12.931c.551 0 .998-.448.998-1zm-65.278 7.634c-5.333 0-9.671-4.339-9.671-9.672s4.338-9.672 9.671-9.672 9.672 4.339 9.672 9.672-4.339 9.672-9.672 9.672zm24.757-56.095v-8.292c0-1.203-.859-2.25-2-2.438-.701-.109-1.409.084-1.945.539-.536.456-.844 1.121-.844 1.824v29.929 2.843 24.642c0 1.27-.923 2.352-2.1 2.465-.67.059-1.309-.148-1.801-.595-.485-.441-.764-1.071-.764-1.727v-33.43c0-1.292-.921-2.417-2.15-2.618-.104-.016-.257-.016-.36.001-1.221.2-2.142 1.325-2.142 2.617v25.913c-.982-2.193-2.621-4.023-4.665-5.251v-44.788c0-.703-.308-1.368-.844-1.824-.436-.371-.986-.57-1.554-.57-.131 0-.262.011-.393.031-1.139.188-1.998 1.234-1.998 2.438v17.063c0 .458-.201.891-.553 1.187-.356.3-.812.418-1.283.338-.721-.125-1.264-.843-1.264-1.669v-17.249c0-5.485 4.463-9.948 9.948-9.948h9.861c5.485 0 9.947 4.463 9.947 9.948v5.759c0 .553.447 1 1 1h6.742c.473 0 .912.189 1.238.532.325.343.49.792.465 1.267-.047.889-.88 1.612-1.856 1.612h-8.914c-.063-.011-.127-.015-.19-.015-.423.002-.825-.148-1.125-.443-.294-.289-.456-.677-.456-1.091zm2.523 14.993.019-11.444h8.146c2.058 0 3.75-1.54 3.854-3.507.016-.309-.017-.61-.074-.905l14.903-10.271c.455-.313.569-.936.256-1.391-.313-.453-.935-.568-1.391-.256l-14.675 10.114c-.012-.013-.02-.028-.032-.041-.696-.734-1.677-1.155-2.688-1.155h-5.742v-4.759c0-2.759-.949-5.295-2.525-7.32l.011-6.525h14.284c.553 0 1-.447 1-1s-.447-1-1-1h-16.292c-.171 0-.343-.027-.51-.083-.68-.218-1.136-.846-1.136-1.563 0-.441.17-.853.487-1.166.306-.31.717-.479 1.158-.479h54.754c.717 0 1.345.456 1.566 1.146.052.156.079.328.079.499 0 .441-.17.853-.487 1.166-.306.31-.717.479-1.158.479h-20.706c-.553 0-1 .447-1 1s.447 1 1 1h18.821l-.06 37.457c0 2.857-2.325 5.182-5.183 5.182h-40.497c-2.858.002-5.182-2.323-5.182-5.178zm12.811 41.102c-5.333 0-9.672-4.339-9.672-9.672s4.339-9.672 9.672-9.672 9.671 4.339 9.671 9.672-4.338 9.672-9.671 9.672zm11.618-8.634c.03-.342.053-.687.053-1.037 0-.105-.013-.206-.016-.311h9.185c.938 0 1.748.552 2.124 1.348z" fill="#3a2c60"/><path d="m34.896 19.593c4.343 0 7.876-3.533 7.876-7.876s-3.533-7.876-7.876-7.876-7.876 3.533-7.876 7.876 3.534 7.876 7.876 7.876zm0-13.752c3.24 0 5.876 2.636 5.876 5.876s-2.636 5.876-5.876 5.876-5.876-2.636-5.876-5.876 2.636-5.876 5.876-5.876z" fill="#3a2c60"/><path d="m22.084 100.18c-8.374 0-15.188 6.813-15.188 15.188v3.792c0 .553.447 1 1 1h28.376c.553 0 1-.447 1-1v-3.792c0-8.375-6.813-15.188-15.188-15.188zm13.188 17.979h-26.376v-2.792c0-7.271 5.916-13.188 13.188-13.188s13.188 5.916 13.188 13.188z" fill="#3a2c60"/><path d="m62.175 100.18c-8.375 0-15.188 6.813-15.188 15.188v3.792c0 .553.447 1 1 1h28.376c.553 0 1-.447 1-1v-3.792c-.001-8.375-6.814-15.188-15.188-15.188zm13.187 17.979h-26.376v-2.792c0-7.271 5.916-13.188 13.188-13.188 7.271 0 13.188 5.916 13.188 13.188z" fill="#3a2c60"/><path d="m90.244 86.901c0 6.436 5.236 11.672 11.672 11.672s11.671-5.236 11.671-11.672-5.235-11.672-11.671-11.672-11.672 5.236-11.672 11.672zm21.343 0c0 5.333-4.338 9.672-9.671 9.672s-9.672-4.339-9.672-9.672 4.339-9.672 9.672-9.672 9.671 4.339 9.671 9.672z" fill="#3a2c60"/><path d="m101.916 100.18c-8.375 0-15.188 6.813-15.188 15.188v3.792c0 .553.447 1 1 1h28.376c.553 0 1-.447 1-1v-3.792c-.001-8.375-6.814-15.188-15.188-15.188zm13.187 17.979h-26.376v-2.792c0-7.271 5.916-13.188 13.188-13.188 7.271 0 13.188 5.916 13.188 13.188z" fill="#3a2c60"/></svg>