<svg id="Layer_1" enable-background="new 0 0 512 512" height="512" viewBox="0 0 512 512" width="512" xmlns="http://www.w3.org/2000/svg"><g><g><path d="m398.47 159.485c0 78.55-63.91 142.46-142.47 142.46-5.06 0-10.07-.27-15-.79-71.53-7.51-127.47-68.18-127.47-141.67 0-73.5 55.94-134.17 127.47-141.68 4.93-.52 9.94-.79 15-.79 78.56 0 142.47 63.91 142.47 142.47z" fill="#ffe85f"/><path d="m398.47 159.485c0 78.55-63.91 142.46-142.47 142.46-5.06 0-10.07-.27-15-.79 71.53-7.51 127.47-68.18 127.47-141.67 0-73.5-55.94-134.17-127.47-141.68 4.93-.52 9.94-.79 15-.79 78.56 0 142.47 63.91 142.47 142.47z" fill="#ffcf48"/><g><path d="m309.88 115.624c-1.699-27.394-23.64-49.334-51.034-51.035-15.246-.952-29.749 4.274-40.842 14.7-10.938 10.281-17.212 24.784-17.212 39.79 0 8.284 6.716 15 15 15s15-6.716 15-15c0-6.86 2.755-13.228 7.757-17.929 4.997-4.696 11.54-7.043 18.438-6.619 12.118.752 22.2 10.833 22.952 22.951.688 11.098-5.853 21.054-16.277 24.774-13.919 4.968-23.271 18.013-23.271 32.461 0 8.284 6.716 15 15 15s15-6.716 15-15c0-1.828 1.317-3.479 3.355-4.207 22.776-8.129 37.636-30.699 36.134-54.886z" fill="#616270"/></g><circle cx="255.388" cy="234.183" fill="#616270" r="15.002"/></g><g><g><g><g><path d="m237.71 455.255c0 2.57-1.31 4.96-3.49 6.34-34.47 21.84-74.36 33.39-115.36 33.39-39.43 0-77.83-10.68-111.36-30.92-.02-.01-.04-.02-.06-.04-1.33-.79-2.64-1.6-3.95-2.43-2.17-1.38-3.49-3.77-3.49-6.34 0-29.59 24.06-53.67 53.63-53.67h130.45c29.57 0 53.63 24.08 53.63 53.67z" fill="#f35"/><path d="m237.71 455.255c0 2.57-1.31 4.96-3.49 6.34-34.47 21.84-74.36 33.39-115.36 33.39-39.43 0-77.83-10.68-111.36-30.92 22.21 11.85 75.58 15.92 111.36 15.92 36.69 0 72.43-9.94 103.64-28.77-2.03-19.43-17.5-49.63-47.31-49.63h8.89c29.57 0 53.63 24.08 53.63 53.67z" fill="#e52870"/></g><path d="m140.84 388.665c-.81 6.78-.74 13.65.21 20.42 0 12.28-9.93 22.22-22.19 22.22-2.82 0-5.52-.52-8-1.49-8.31-3.21-14.2-11.27-14.2-20.73.95-6.77 1.02-13.64.21-20.43-22.11-17.9-33.32-33.68-33.32-46.88 0-1.4.05-2.81.17-4.15.57-5.81.7-25.03.39-42.2l54.75-41.98 38.58 29.58 16.16 12.39c-.31 17.17-.18 36.37.39 42.18.12 1.37.17 2.78.17 4.18 0 13.2-11.21 28.97-33.32 46.89z" fill="#ffdcc5"/><path d="m140.84 388.665c-.81 6.78-.74 13.65.21 20.42 0 12.28-9.93 22.22-22.19 22.22-2.82 0-5.52-.52-8-1.49 8.31-3.21 14.19-11.28 14.19-20.73-.95-6.77-1.02-13.64-.21-20.42 22.11-17.92 33.32-33.69 33.32-46.89 0-1.4-.05-2.81-.17-4.18-.38-3.88-.56-31.5-.55-54.57l16.16 12.39c-.31 17.17-.18 36.37.39 42.18.12 1.37.17 2.78.17 4.18 0 13.2-11.21 28.97-33.32 46.89z" fill="#ffc6bb"/><path d="m199.26 265.655c0 17.2-13.93 31.15-31.11 31.15h-.09c-13.2-.04-24.47-8.31-28.95-19.95-5.64 4.26-12.65 6.78-20.25 6.78-7.61 0-14.62-2.52-20.26-6.78-4.49 11.67-15.8 19.95-29.04 19.95-17.18 0-31.11-13.95-31.11-31.15 0-11.47 6.2-21.48 15.42-26.88-4.17-3.94-6.78-9.52-6.78-15.71 0-11.92 9.65-21.57 21.55-21.57 3.67 0 7.12.92 10.15 2.53 3.87-7.4 11.6-12.45 20.52-12.45 8.17 0 15.35 4.22 19.48 10.61h.13c1.34-2.09 3.02-3.94 4.94-5.48 3.98-3.21 9.04-5.13 14.54-5.13 10.69 0 19.7 7.25 22.37 17.12 2.2-.95 4.63-1.48 7.18-1.48 10.05 0 18.19 8.15 18.19 18.2 0 4.66-1.74 8.9-4.61 12.12 10.48 5.01 17.73 15.72 17.73 28.12z" fill="#9e5c47"/><path d="m199.26 265.655c0 17.2-13.93 31.15-31.11 31.15h-.09c8.54-5.55 14.2-15.19 14.2-26.15 0-12.4-7.25-23.11-17.73-28.12 2.87-3.22 4.61-7.46 4.61-12.12 0-10.05-8.14-18.2-18.19-18.2-2.55 0-4.98.53-7.18 1.48-2.46-9.1-10.32-15.98-19.91-16.99 3.98-3.21 9.04-5.13 14.54-5.13 10.69 0 19.7 7.25 22.37 17.12 2.2-.95 4.63-1.48 7.18-1.48 10.05 0 18.19 8.15 18.19 18.2 0 4.66-1.74 8.9-4.61 12.12 10.48 5.01 17.73 15.72 17.73 28.12z" fill="#893636"/></g><path d="m487.91 420.535h-189.53c10.22-19.24 14.08-156.15 14.08-156.15v-.45c0-42.99 33.02-61.46 71.68-63.87 2.97-.19 5.97-.28 9-.28 42.54 0 80.94 17.97 80.69 64.6 0 0 3.86 136.91 14.08 156.15z" fill="#ff8150"/><path d="m487.91 420.535h-18c-10.22-19.24-14.08-156.15-14.08-156.15.23-43.31-32.88-61.9-71.69-64.32 2.97-.19 5.97-.28 9-.28 42.54 0 80.94 17.97 80.69 64.6 0 0 3.86 136.91 14.08 156.15z" fill="#f55"/><g><path d="m512 455.255c0 2.57-1.31 4.96-3.49 6.34-34.47 21.84-74.36 33.39-115.36 33.39-39.43 0-77.83-10.68-111.36-30.92-.02-.01-.04-.02-.06-.04-1.33-.79-2.64-1.6-3.95-2.43-2.17-1.38-3.49-3.77-3.49-6.34 0-29.59 24.06-53.67 53.63-53.67h130.45c29.57 0 53.63 24.08 53.63 53.67z" fill="#33cfff"/><path d="m512 455.255c0 2.57-1.31 4.96-3.49 6.34-34.47 21.84-74.36 33.39-115.36 33.39-39.43 0-77.83-10.68-111.36-30.92 22.21 11.85 75.58 15.92 111.36 15.92 36.69 0 72.43-9.94 103.64-28.77-2.03-19.43-17.5-49.63-47.31-49.63h8.89c29.57 0 53.63 24.08 53.63 53.67z" fill="#33a8ff"/></g><path d="m415.13 388.665c-.81 6.78-.74 13.65.21 20.42 0 12.28-9.93 22.22-22.2 22.22-2.81 0-5.51-.52-7.98-1.49h-.01c-8.31-3.2-14.2-11.27-14.2-20.73.95-6.77 1.02-13.64.21-20.43-22.11-17.9-33.32-33.68-33.32-46.88 0-1.4.05-2.81.17-4.15.57-5.81.7-25.03.39-42.2h53.25c12.39 0 22.43-10.06 22.43-22.46 0 10.76 7.56 19.75 17.66 21.94 1.54.34 3.14.52 4.78.52l11.37-.01c-.31 17.17-.18 36.37.39 42.18.12 1.37.17 2.78.17 4.18 0 13.2-11.21 28.97-33.32 46.89z" fill="#ffdcc5"/><path d="m415.13 388.665c-.81 6.78-.74 13.65.21 20.42 0 12.28-9.93 22.22-22.2 22.22-2.81 0-5.51-.52-7.98-1.49 8.3-3.22 14.18-11.28 14.18-20.73-.95-6.77-1.02-13.64-.21-20.42 22.11-17.92 33.32-33.69 33.32-46.89 0-1.4-.05-2.81-.17-4.18-.32-3.23-.49-22.89-.54-42.69 1.54.34 3.14.52 4.78.52l11.37-.01c-.31 17.17-.18 36.37.39 42.18.12 1.37.17 2.78.17 4.18 0 13.2-11.21 28.97-33.32 46.89z" fill="#ffc6bb"/></g></g></g></svg>