<svg id="Capa_1" enable-background="new 0 0 512 512" height="512" viewBox="0 0 512 512" width="512" xmlns="http://www.w3.org/2000/svg"><path d="m405.045 419.92c18.858 18.858 38.635 33.494 55.94 42.339 4.818 2.463 10.68 1.472 14.507-2.354l14.871-14.871c3.826-3.826 4.817-9.688 2.354-14.507-8.845-17.306-23.481-37.082-42.339-55.94s-38.635-33.494-55.94-42.339c-4.818-2.463-10.68-1.472-14.507 2.354l-14.871 14.871c-3.826 3.826-4.817 9.688-2.354 14.507 8.846 17.305 23.481 37.082 42.339 55.94z" fill="#a698a6"/><path d="m492.718 430.527c-2.596-5.079-5.704-10.375-9.258-15.794l-11.291 11.291c-3.826 3.826-9.688 4.817-14.506 2.354-17.306-8.845-37.082-23.481-55.941-42.339-13.324-13.324-24.526-27.102-33.081-40.147l-3.58 3.58c-3.826 3.827-4.817 9.689-2.354 14.507 8.845 17.306 23.481 37.082 42.339 55.94s38.635 33.494 55.94 42.339c4.818 2.463 10.68 1.472 14.507-2.354l14.871-14.871c3.826-3.826 4.816-9.688 2.354-14.506z" fill="#8f818f"/><circle cx="244.689" cy="204.623" fill="#d8eafb" r="182.432"/><path d="m173.162 130.743c-.439 0-.877-.005-1.317-.014-4.27-.089-7.661-3.622-7.573-7.893s3.648-7.658 7.893-7.573c13.886.297 27.627-5.426 37.665-15.676 11.459-11.701 26.123-18.963 42.407-21 26.794-3.356 52.951 8.41 68.243 30.701 2.417 3.523 1.52 8.338-2.003 10.754-3.522 2.417-8.338 1.519-10.753-2.003-12.004-17.5-32.529-26.732-53.566-24.102-12.781 1.599-24.286 7.296-33.275 16.474-12.699 12.965-30.026 20.331-47.721 20.332z" fill="#e7b467"/><path d="m353.605 58.261c22.657 30.397 36.071 68.089 36.071 108.916 0 100.754-81.678 182.432-182.432 182.432-40.826 0-78.519-13.414-108.916-36.07 33.257 44.618 86.434 73.516 146.361 73.516 100.754 0 182.432-81.678 182.432-182.432 0-59.928-28.898-113.104-73.516-146.362z" fill="#b3d8fb"/><path d="m244.689 409.246c-112.829 0-204.622-91.794-204.622-204.624s91.793-204.622 204.622-204.622 204.622 91.793 204.622 204.622-91.793 204.624-204.622 204.624zm0-380.888c-97.193 0-176.265 79.072-176.265 176.265s79.072 176.266 176.265 176.266 176.265-79.073 176.265-176.266-79.072-176.265-176.265-176.265z" fill="#c8c1c9"/><path d="m381.083 52.228c32.457 36.226 52.228 84.042 52.228 136.394 0 112.829-91.793 204.624-204.622 204.624-52.352 0-100.168-19.772-136.394-52.229 37.493 41.848 91.917 68.229 152.394 68.229 112.829 0 204.622-91.794 204.622-204.624 0-60.476-26.38-114.9-68.228-152.394z" fill="#a698a6"/><path d="m357.483 201.158c4.419 5.003 4.419 12.51 0 17.513-16.972 19.213-61.684 63.365-114.172 63.365s-97.201-44.152-114.172-63.365c-4.419-5.003-4.419-12.51 0-17.513 16.972-19.213 61.684-63.365 114.172-63.365s97.2 44.152 114.172 63.365z" fill="#fff"/><path d="m357.483 201.158c-5.181-5.865-12.957-14.055-22.74-22.602 3.837 4.983 3.656 12.037-.563 16.813-16.972 19.213-61.684 63.365-114.172 63.365-36.466 0-69.168-21.309-91.433-40.762.182.237.363.474.563.7 16.972 19.213 61.684 63.365 114.172 63.365s97.201-44.152 114.172-63.365c4.421-5.004 4.421-12.511.001-17.514z" fill="#f9f5f5"/><circle cx="243.311" cy="231.275" fill="#845151" r="39.056"/><path d="m262.535 197.282c3.217 5.677 5.063 12.233 5.063 19.224 0 21.57-17.486 39.056-39.056 39.056-6.991 0-13.547-1.846-19.224-5.063 6.71 11.838 19.414 19.832 33.993 19.832 21.57 0 39.056-17.486 39.056-39.056 0-14.579-7.994-27.283-19.832-33.993z" fill="#5a3535"/><path d="m310.735 335.472c-7.922-8.082-29.666-26.403-64.005-26.403-44.057 0-67.381 30.158-67.381 30.158h-26.65s-23.324-30.158-67.381-30.158c-34.338 0-56.082 18.32-64.004 26.403-2.172 2.216-3.377 5.192-3.377 8.294v153.031c0 5.423 6.272 8.419 10.494 5.016 10.858-8.752 30.016-19.971 56.887-19.971 44.057 0 67.381 30.158 67.381 30.158h26.65s23.324-30.158 67.381-30.158c26.871 0 46.029 11.218 56.887 19.971 4.222 3.403 10.494.408 10.494-5.016v-153.031c.001-3.102-1.205-6.078-3.376-8.294z" fill="#ae66d8"/><path d="m288.608 319.237v126.282c0 7.489-7.262 12.845-14.403 10.587-8-2.531-17.168-4.183-27.475-4.183-44.057 0-67.381 30.158-67.381 30.158v29.919s23.324-30.158 67.381-30.158c26.871 0 46.029 11.218 56.887 19.971 4.222 3.404 10.494.408 10.494-5.015v-153.026c0-3.131-1.241-6.123-3.438-8.355-3.98-4.047-11.389-10.614-22.065-16.18z" fill="#9459bc"/><path d="m125.679 318.458v126.593c0 7.427-7.144 12.754-14.261 10.63-7.672-2.289-16.38-3.758-26.1-3.758-44.057 0-67.381 30.158-67.381 30.158v14.717c0 5.423 6.272 8.419 10.494 5.015 10.858-8.752 30.017-19.971 56.887-19.971 44.057 0 67.381 30.158 67.381 30.158v-172.773s-9.226-11.917-27.02-20.769z" fill="#9459bc"/><path d="m152.699 339.227h26.65v172.773h-26.65z" fill="#c995e4"/><path d="m171.105 339.227h8.243v172.773h-8.243z" fill="#bb80e0"/></svg>