<svg xmlns="http://www.w3.org/2000/svg" height="512pt" version="1.1" viewBox="0 0 512 512" width="512pt">
<g id="surface1">
<path d="M 512 256 C 512 397.386719 397.386719 512 256 512 C 114.613281 512 0 397.386719 0 256 C 0 114.613281 114.613281 0 256 0 C 397.386719 0 512 114.613281 512 256 Z M 512 256 " style=" stroke:none;fill-rule:nonzero;fill:rgb(100%,91.372549%,33.333333%);fill-opacity:1;" />
<path d="M 512 256 C 512 282.050781 508.109375 307.191406 500.871094 330.871094 C 468.859375 435.71875 371.328125 512 256 512 C 151.441406 512 61.511719 449.300781 21.769531 359.449219 C 7.769531 327.820312 0 292.820312 0 256 C 0 209.78125 12.25 166.429688 33.679688 129 C 77.800781 206.070312 160.839844 258 256 258 C 351.160156 258 434.210938 206.070312 478.320312 129 C 499.75 166.429688 512 209.78125 512 256 Z M 512 256 " style=" stroke:none;fill-rule:nonzero;fill:rgb(100%,81.960784%,7.058824%);fill-opacity:1;" />
<path d="M 30.742188 377.703125 C 37.898438 390.921875 46.171875 403.441406 55.460938 415.128906 C 102.359375 474.148438 174.761719 512 256 512 C 337.238281 512 409.640625 474.148438 456.539062 415.128906 C 465.828125 403.441406 474.101562 390.921875 481.257812 377.703125 Z M 30.742188 377.703125 " style=" stroke:none;fill-rule:nonzero;fill:rgb(100%,62.352941%,0%);fill-opacity:1;" />
<path d="M 406.101562 463.390625 C 363.960938 493.949219 312.128906 511.980469 256.101562 512 L 256 512 C 199.988281 512 148.191406 494.011719 106.039062 463.5 L 105.871094 129.128906 L 255.898438 129.050781 L 346.21875 129 L 405.960938 186.011719 Z M 406.101562 463.390625 " style=" stroke:none;fill-rule:nonzero;fill:rgb(100%,100%,100%);fill-opacity:1;" />
<path d="M 406.101562 463.390625 C 363.960938 493.949219 312.128906 511.980469 256.101562 512 L 256.050781 411.328125 L 256.039062 389.078125 L 256.03125 374.398438 L 256.019531 352.148438 L 256.011719 337.46875 L 256 315.230469 L 255.988281 300.550781 L 255.980469 278.300781 L 255.96875 263.621094 L 255.960938 241.378906 L 255.898438 129.050781 L 346.21875 129 L 405.960938 186.011719 Z M 406.101562 463.390625 " style=" stroke:none;fill-rule:nonzero;fill:rgb(81.568627%,96.470588%,100%);fill-opacity:1;" />
<path d="M 153.480469 241.363281 L 314.371094 241.363281 L 314.371094 263.609375 L 153.480469 263.609375 Z M 153.480469 241.363281 " style=" stroke:none;fill-rule:nonzero;fill:rgb(19.607843%,23.137255%,35.294118%);fill-opacity:1;" />
<path d="M 153.460938 278.289062 L 314.351562 278.289062 L 314.351562 300.535156 L 153.460938 300.535156 Z M 153.460938 278.289062 " style=" stroke:none;fill-rule:nonzero;fill:rgb(19.607843%,23.137255%,35.294118%);fill-opacity:1;" />
<path d="M 153.441406 315.214844 L 314.328125 315.214844 L 314.328125 337.460938 L 153.441406 337.460938 Z M 153.441406 315.214844 " style=" stroke:none;fill-rule:nonzero;fill:rgb(19.607843%,23.137255%,35.294118%);fill-opacity:1;" />
<path d="M 153.421875 352.140625 L 314.308594 352.140625 L 314.308594 374.386719 L 153.421875 374.386719 Z M 153.421875 352.140625 " style=" stroke:none;fill-rule:nonzero;fill:rgb(19.607843%,23.137255%,35.294118%);fill-opacity:1;" />
<path d="M 153.398438 389.066406 L 314.289062 389.066406 L 314.289062 411.3125 L 153.398438 411.3125 Z M 153.398438 389.066406 " style=" stroke:none;fill-rule:nonzero;fill:rgb(19.607843%,23.137255%,35.294118%);fill-opacity:1;" />
<path d="M 339.75 265.976562 L 322.960938 249.171875 L 333.574219 238.570312 L 339.761719 244.765625 L 353.347656 231.195312 L 363.945312 241.808594 Z M 339.75 265.976562 " style=" stroke:none;fill-rule:nonzero;fill:rgb(58.431373%,83.921569%,0%);fill-opacity:1;" />
<path d="M 339.730469 304.546875 L 322.941406 287.738281 L 333.550781 277.140625 L 339.738281 283.332031 L 353.324219 269.765625 L 363.925781 280.375 Z M 339.730469 304.546875 " style=" stroke:none;fill-rule:nonzero;fill:rgb(58.431373%,83.921569%,0%);fill-opacity:1;" />
<path d="M 339.707031 343.117188 L 322.917969 326.308594 L 333.53125 315.707031 L 339.71875 321.902344 L 353.304688 308.332031 L 363.902344 318.945312 Z M 339.707031 343.117188 " style=" stroke:none;fill-rule:nonzero;fill:rgb(58.431373%,83.921569%,0%);fill-opacity:1;" />
<path d="M 339.6875 381.683594 L 322.898438 364.878906 L 333.511719 354.277344 L 339.695312 360.472656 L 353.28125 346.902344 L 363.882812 357.515625 Z M 339.6875 381.683594 " style=" stroke:none;fill-rule:nonzero;fill:rgb(58.431373%,83.921569%,0%);fill-opacity:1;" />
<path d="M 339.664062 420.253906 L 322.875 403.445312 L 333.488281 392.847656 L 339.675781 399.039062 L 353.261719 385.472656 L 363.859375 396.082031 Z M 339.664062 420.253906 " style=" stroke:none;fill-rule:nonzero;fill:rgb(58.431373%,83.921569%,0%);fill-opacity:1;" />
<path d="M 192.660156 165.738281 L 174.910156 165.730469 L 152.808594 217.980469 L 170.558594 217.988281 L 173.25 210.609375 L 192.851562 210.621094 L 195.460938 218 L 213.878906 218.011719 Z M 177.730469 198.238281 L 183.25 182.960938 L 188.609375 198.238281 Z M 177.730469 198.238281 " style=" stroke:none;fill-rule:nonzero;fill:rgb(0%,40%,90.980392%);fill-opacity:1;" />
<path d="M 237.789062 188.28125 L 237.789062 176.351562 L 227.351562 176.339844 L 227.339844 188.269531 L 215.410156 188.269531 L 215.410156 198.699219 L 227.339844 198.710938 L 227.328125 210.640625 L 237.769531 210.648438 L 237.78125 198.71875 L 249.710938 198.71875 L 249.71875 188.289062 Z M 237.789062 188.28125 " style=" stroke:none;fill-rule:nonzero;fill:rgb(0%,40%,90.980392%);fill-opacity:1;" />
<path d="M 405.964844 186.011719 L 346.214844 129 L 345.632812 185.386719 Z M 405.964844 186.011719 " style=" stroke:none;fill-rule:nonzero;fill:rgb(56.078431%,78.823529%,96.862745%);fill-opacity:1;" />
</g>
</svg>