<svg id="Layer_1" enable-background="new 0 0 128 128" height="512" viewBox="0 0 128 128" width="512" xmlns="http://www.w3.org/2000/svg"><g><g fill="#e6e7e8"><path d="m123.395 111.668h-8.995v-58.525c0-3.859-3.141-7-7-7h-24.22c3.342-4.407 5.265-9.819 5.265-15.138 0-12.376-10.069-22.444-22.445-22.444s-22.445 10.068-22.445 22.444c0 5.319 1.923 10.731 5.265 15.138h-24.22c-3.859 0-7 3.141-7 7v58.525h-8.996c-.553 0-1 .447-1 1v3.934c0 3.83 3.115 6.945 6.945 6.945h102.898c3.831 0 6.947-3.115 6.947-6.945v-3.934c.001-.553-.446-1-.999-1z"/><path d="m24.856 19.16 2.102.565c2.608.702 4.666 2.759 5.368 5.367l.565 2.102c.117.437.514.74.966.74s.848-.304.966-.74l.566-2.102c.701-2.607 2.758-4.665 5.367-5.367l2.102-.565c.437-.117.74-.514.74-.966s-.303-.848-.74-.966l-2.102-.566c-2.609-.702-4.666-2.76-5.367-5.367l-.566-2.102c-.118-.438-.514-.74-.966-.74s-.849.304-.966.74l-.565 2.102c-.702 2.608-2.76 4.665-5.368 5.367l-2.102.566c-.438.118-.74.514-.74.966s.304.849.74.966z"/><path d="m91.899 35.008 1.71.461c2.057.554 3.679 2.175 4.232 4.231l.46 1.709c.118.437.514.74.966.74s.848-.304.966-.74l.46-1.709c.554-2.057 2.176-3.678 4.233-4.231l1.709-.461c.437-.118.739-.514.739-.966s-.304-.848-.74-.966l-1.709-.46c-2.057-.554-3.679-2.176-4.232-4.232l-.46-1.709c-.118-.437-.514-.74-.966-.74s-.848.304-.966.74l-.46 1.709c-.554 2.057-2.176 3.679-4.232 4.232l-1.709.46c-.437.118-.74.514-.74.966s.303.848.739.966z"/></g><g><g><path d="m103.4 43.142h-26.337c-.48.533-.978 1.05-1.501 1.538-2.94 2.749-5.116 6.134-6.5 9.833v7.94c0 1.657-1.343 3-3 3h-.058v1.222c0 1.479-1.199 2.679-2.679 2.679h-2.65c-1.48 0-2.679-1.199-2.679-2.679v-1.222h-.058c-1.657 0-3-1.343-3-3v-7.94c-1.384-3.699-3.56-7.085-6.5-9.833-.523-.489-1.021-1.005-1.501-1.538h-26.338c-3.314 0-6 2.686-6 6v59.526h94.801v-59.526c0-3.314-2.686-6-6-6z" fill="#0089ef"/><path d="m100.372 51.979h-30.207c-.409.826-.78 1.67-1.103 2.534v7.94c0 1.657-1.343 3-3 3h-.058v1.222c0 1.479-1.199 2.679-2.679 2.679h-2.65c-1.48 0-2.679-1.199-2.679-2.679v-1.222h-.058c-1.657 0-3-1.343-3-3v-7.94c-.323-.864-.694-1.709-1.103-2.534h-30.208c-1.105 0-2 .895-2 2v54.688h80.745v-54.688c0-1.104-.895-2-2-2z" fill="#d4fbff"/><path d="m4.605 108.668v3.933c0 3.283 2.662 5.945 5.945 5.945h102.898c3.284 0 5.946-2.662 5.946-5.945v-3.933z" fill="#0089ef"/><path d="m4.605 108.668v3.933c0 3.283 2.662 5.945 5.945 5.945h102.898c3.284 0 5.946-2.662 5.946-5.945v-3.933z" fill="#0089ef"/><path d="m42.949 108.668v1.991c0 1.662 1.347 3.009 3.009 3.009h32.083c1.662 0 3.01-1.348 3.01-3.009v-1.991z" fill="#6dc9f7"/></g><g fill="#fa759e"><path d="m54.366 96.623v.044c0 1.834-1.879 3.068-3.563 2.339l-14.362-6.226c-1.338-.58-2.203-1.898-2.203-3.356v-.039c0-1.458.866-2.776 2.203-3.356l14.363-6.225c1.683-.729 3.563.504 3.563 2.339v.069c0 1.054-.649 2-1.633 2.379l-12.393 4.774 12.41 4.886c.974.384 1.615 1.324 1.615 2.372z"/><path d="m66.812 78.14-5.603 23.071c-.187.76-.349 1.36-.49 1.801-.14.44-.353.784-.64 1.031s-.704.37-1.251.37c-1.36 0-2.041-.586-2.041-1.761 0-.306.133-1.074.4-2.301l5.582-23.071c.294-1.227.574-2.068.841-2.521.266-.453.787-.68 1.56-.68.667 0 1.177.16 1.531.48.353.32.53.76.53 1.321.001.412-.139 1.167-.419 2.26z"/><path d="m87.565 92.782-14.365 6.255c-1.684.733-3.566-.501-3.566-2.337v-.035c0-1.048.642-1.99 1.617-2.373l12.449-4.888-12.437-4.812c-.982-.38-1.629-1.324-1.629-2.377 0-1.833 1.876-3.066 3.559-2.34l14.361 6.196c1.341.578 2.209 1.899 2.209 3.359-.001 1.454-.864 2.771-2.198 3.352z"/></g><g><path d="m66.062 65.454h-8.125c-1.657 0-3-1.343-3-3v-7.94h14.125v7.94c0 1.657-1.343 3-3 3z" fill="#0089ef"/><path d="m63.325 69.354h-2.65c-1.48 0-2.679-1.199-2.679-2.679v-1.222h8.008v1.222c0 1.48-1.199 2.679-2.679 2.679z" fill="#6dc9f7"/><path d="m62 5.56c-11.844 0-21.445 9.601-21.445 21.445 0 6.699 3.071 13.178 7.883 17.675 2.94 2.749 5.116 6.134 6.5 9.833h14.124c1.384-3.699 3.56-7.085 6.5-9.833 4.811-4.497 7.883-10.977 7.883-17.675 0-11.843-9.601-21.445-21.445-21.445z" fill="#ffd7e5"/><path d="m65.146 16.096-11.706 18.719h8.641l-4.397 14.025 12.876-19.48h-9.777z" fill="#fa759e"/><path d="m62 8.56c11.385 0 20.672 8.879 21.376 20.086.041-.545.069-1.092.069-1.641 0-11.843-9.601-21.445-21.445-21.445s-21.445 9.601-21.445 21.445c0 .549.028 1.096.069 1.641.704-11.207 9.991-20.086 21.376-20.086z" fill="#fff"/></g><path d="m36.497 13.628 2.102.566-2.102.566c-2.962.798-5.276 3.111-6.073 6.073l-.566 2.102-.566-2.102c-.798-2.962-3.111-5.276-6.073-6.073l-2.102-.566 2.102-.566c2.962-.798 5.276-3.111 6.073-6.073l.566-2.102.566 2.102c.797 2.962 3.111 5.275 6.073 6.073z" fill="#d4fbff"/><g><path d="m100.666 29.582 1.709.46-1.709.46c-2.408.648-4.29 2.53-4.938 4.938l-.46 1.709-.46-1.709c-.648-2.408-2.53-4.29-4.938-4.938l-1.709-.46 1.709-.46c2.409-.648 4.29-2.53 4.938-4.938l.46-1.709.46 1.709c.648 2.408 2.529 4.29 4.938 4.938z" fill="#d4fbff"/><g fill="#3a2c60"><path d="m102.375 72.905c-.553 0-1 .447-1 1v9.748c0 .553.447 1 1 1s1-.447 1-1v-9.748c0-.552-.447-1-1-1z"/><path d="m119.395 107.668h-8.994v-58.525c0-3.859-3.141-7-7-7h-24.221c3.342-4.406 5.265-9.818 5.265-15.138-.001-12.376-10.069-22.444-22.445-22.444s-22.445 10.068-22.445 22.444c0 5.32 1.923 10.731 5.265 15.138h-24.22c-3.859 0-7 3.141-7 7v58.525h-8.995c-.553 0-1 .447-1 1v3.934c0 3.83 3.115 6.945 6.945 6.945h102.898c3.83 0 6.946-3.115 6.946-6.945v-3.934c.001-.553-.447-1-.999-1zm-15.994-63.525c2.757 0 5 2.243 5 5v58.525h-5.028v-19.181c0-.553-.447-1-1-1s-1 .447-1 1v19.181h-78.746v-53.689c0-.552.448-1 1-1h29.575c.262.564.51 1.138.735 1.728v7.746c0 1.88 1.307 3.45 3.058 3.876v.346c0 2.028 1.65 3.679 3.68 3.679h2.65c2.028 0 3.679-1.65 3.679-3.679v-.345c1.751-.426 3.059-1.996 3.059-3.876v-7.749c.225-.59.473-1.163.734-1.726h29.575c.552 0 1 .448 1 1v15.341c0 .553.447 1 1 1s1-.447 1-1v-15.341c0-1.654-1.346-3-3-3h-28.545c1.2-2.078 2.677-3.942 4.417-5.568.435-.407.85-.833 1.254-1.269h25.903zm-44.406 22.311h6.009v.222c0 .926-.753 1.679-1.679 1.679h-2.65c-.926 0-1.68-.753-1.68-1.679zm7.068-2h-.059-8.009-.058c-1.103 0-2-.897-2-2v-1.579h12.125v1.579c.001 1.103-.897 2-1.999 2zm2-5.579h-12.125v-3.361h12.125zm-6.063-52.314c11.273 0 20.444 9.171 20.444 20.444 0 6.183-2.828 12.518-7.565 16.945-2.828 2.643-5.014 5.857-6.502 9.563h-12.755c-1.488-3.706-3.674-6.921-6.502-9.563-4.737-4.428-7.565-10.763-7.565-16.945 0-11.274 9.172-20.444 20.445-20.444zm-46.4 42.582c0-2.757 2.243-5 5-5h25.901c.405.435.819.862 1.254 1.269 1.741 1.627 3.217 3.491 4.417 5.568h-28.545c-1.654 0-3 1.346-3 3v53.688h-5.027zm102.795 63.459c0 2.727-2.219 4.945-4.946 4.945h-102.899c-2.727 0-4.945-2.219-4.945-4.945v-2.934h112.79z"/><path d="m55.366 82.143c0-1.199-.599-2.309-1.602-2.967-1.002-.658-2.257-.767-3.358-.29l-14.364 6.227c-1.704.739-2.805 2.416-2.805 4.312 0 1.857 1.102 3.535 2.806 4.273l14.363 6.226c.454.196.934.294 1.412.294.681 0 1.357-.197 1.946-.584 1.003-.658 1.602-1.768 1.602-2.967v-.044c0-1.468-.883-2.765-2.249-3.303l-10.021-3.945 9.996-3.851c1.361-.524 2.274-1.855 2.274-3.381zm-2.992 1.514-12.393 4.774c-.385.148-.639.518-.641.93s.25.783.634.935l12.41 4.886c.596.234.981.801.981 1.441v.044c0 .531-.255 1.003-.699 1.295-.442.292-.977.339-1.466.126l-14.363-6.226c-.973-.421-1.601-1.378-1.601-2.478 0-1.059.629-2.016 1.601-2.438l14.363-6.226c.202-.088.412-.131.62-.131.295 0 .586.086.846.257.444.292.699.764.699 1.364.001.638-.397 1.219-.991 1.447z"/><path d="m65.171 73.078c-1.432 0-2.107.639-2.423 1.174-.324.552-.627 1.439-.95 2.792l-5.588 23.093c-.375 1.722-.423 2.247-.423 2.514 0 1.729 1.137 2.761 3.041 2.761.791 0 1.431-.205 1.902-.611.429-.369.746-.869.94-1.485.146-.456.316-1.078.51-1.868l5.601-23.063c.403-1.573.45-2.183.45-2.504 0-1.062-.467-1.707-.858-2.062-.541-.493-1.282-.741-2.202-.741zm.672 4.814c-.001.004-.002.008-.003.012l-5.603 23.068c-.18.733-.336 1.311-.472 1.737-.082.258-.196.451-.34.575-.034.029-.181.127-.598.127-1.041 0-1.041-.353-1.041-.761 0-.06.019-.439.372-2.065l5.583-23.073c.354-1.475.609-2.04.73-2.246.068-.117.33-.188.698-.188.28 0 .657.038.858.221.095.085.202.228.202.58.003.149-.036.644-.386 2.013z"/><path d="m87.95 85.152-14.361-6.195c-1.102-.475-2.355-.365-3.355.293-1.002.658-1.6 1.767-1.6 2.965 0 1.454.911 2.784 2.268 3.31l10.045 3.887-10.061 3.95c-1.368.536-2.252 1.833-2.252 3.339 0 1.2.6 2.31 1.604 2.968.589.386 1.264.582 1.944.582.479 0 .962-.098 1.418-.296l14.364-6.255c1.699-.74 2.798-2.416 2.798-4.271 0-1.862-1.104-3.539-2.812-4.277zm-.785 6.713-14.363 6.255c-.49.212-1.024.167-1.469-.125-.444-.291-.699-.764-.699-1.33 0-.642.386-1.208.982-1.442l12.449-4.888c.384-.15.636-.521.635-.934s-.255-.781-.639-.93l-12.438-4.812c-.593-.229-.99-.81-.99-1.444 0-.53.255-1.002.698-1.294.26-.171.551-.258.846-.258.208 0 .417.043.618.13l14.361 6.195c.975.421 1.604 1.379 1.604 2.44.002 1.058-.625 2.015-1.595 2.437z"/><path d="m53.44 35.815h7.279l-3.989 12.726c-.149.476.074.988.524 1.202.139.065.284.097.429.097.327 0 .645-.16.835-.448l12.876-19.48c.203-.308.221-.701.047-1.025-.175-.324-.513-.526-.881-.526h-8.395l3.931-11.95c.158-.48-.067-1.003-.525-1.218-.459-.216-1.005-.054-1.272.375l-11.707 18.717c-.193.309-.203.697-.027 1.015s.511.515.875.515zm8.176-12.189-1.783 5.421c-.1.305-.048.639.14.898.188.26.49.414.811.414h7.916l-7.941 12.015 2.275-7.26c.096-.304.04-.635-.148-.891-.188-.257-.487-.408-.806-.408h-6.836z"/><path d="m20.857 15.16 2.102.565c2.609.702 4.666 2.76 5.367 5.367l.566 2.102c.118.438.514.74.966.74s.849-.304.966-.74l.565-2.102c.702-2.608 2.76-4.665 5.368-5.367l2.102-.565c.437-.117.74-.514.74-.966s-.303-.848-.74-.966l-2.102-.566c-2.608-.702-4.666-2.759-5.368-5.367l-.565-2.102c-.117-.437-.514-.74-.966-.74s-.848.304-.966.74l-.566 2.102c-.701 2.607-2.758 4.665-5.367 5.367l-2.102.566c-.438.118-.74.514-.74.966s.303.849.74.966zm9.001-6.171c.975 2.349 2.855 4.229 5.206 5.204-2.351.976-4.231 2.856-5.206 5.206-.975-2.35-2.855-4.23-5.206-5.205 2.35-.975 4.231-2.856 5.206-5.205z"/><path d="m87.9 31.008 1.71.461c2.057.554 3.679 2.175 4.232 4.231l.46 1.709c.118.437.514.74.966.74s.848-.304.966-.74l.46-1.709c.554-2.057 2.176-3.678 4.233-4.231l1.709-.461c.437-.118.739-.514.739-.966s-.304-.848-.74-.966l-1.709-.46c-2.057-.554-3.679-2.176-4.232-4.232l-.46-1.709c-.118-.437-.514-.74-.966-.74s-.848.304-.966.74l-.46 1.709c-.554 2.057-2.176 3.679-4.232 4.232l-1.709.46c-.437.118-.74.514-.74.966s.302.848.739.966zm7.368-4.739c.789 1.648 2.126 2.985 3.774 3.773-1.648.789-2.985 2.126-3.774 3.774-.789-1.648-2.127-2.985-3.774-3.774 1.648-.788 2.985-2.125 3.774-3.773z"/></g></g></g></g></svg>