<svg id="Color" enable-background="new 0 0 24 24" height="512" viewBox="0 0 24 24" width="512" xmlns="http://www.w3.org/2000/svg"><path d="m13.163 13.999-5.153-3.109c-.173-.105-.383-.134-.58-.083-.197.052-.364.182-.463.36l-4.873 8.765c-.134.241-.125.537.024.769s.413.364.689.343l3.079-.237 1.366 2.774c.123.25.374.411.652.418h.021c.27 0 .521-.145.653-.382l4.851-8.609c.199-.353.082-.8-.266-1.009z" fill="#388e3c"/><path d="m7.623 10.782c-.065 0-.13.008-.193.025-.197.052-.364.182-.463.36l-4.873 8.765c-.134.241-.125.537.024.769.139.216.377.345.631.345.019 0 .038-.001.057-.002l3.079-.237 4.741-8.338-2.616-1.579c-.118-.071-.252-.108-.387-.108z" fill="#317c34"/><path d="m16.005 24c-.271 0-.52-.146-.653-.382l-5.817-10.305c-.117-.206-.129-.455-.034-.672.096-.217.288-.376.519-.429l6.122-1.402c.325-.072.658.074.821.362l4.94 8.76c.136.241.128.538-.02.771-.149.233-.414.369-.69.345l-3.14-.242-1.375 2.776c-.123.249-.374.409-.652.416z" fill="#4caf50"/><path d="m13.311 11.458-3.291.754c-.231.053-.423.212-.519.429-.095.217-.083.466.034.672l5.816 10.306c.134.235.383.381.654.381h.02c.278-.007.529-.167.652-.416l1.375-2.776z" fill="#429846"/><path d="m12 14c-3.86 0-7-3.14-7-7s3.14-7 7-7 7 3.14 7 7-3.14 7-7 7z" fill="#ffc107"/><path d="m13.25 11h-2.5c-.414 0-.75-.335-.75-.75v-1.375c0-1.172.897-2.125 2-2.125.271 0 .5-.286.5-.625 0-.338-.229-.625-.5-.625h-1.25c-.414 0-.75-.335-.75-.75 0-.414.336-.75.75-.75h1.25c1.103 0 2 .953 2 2.125s-.897 2.125-2 2.125c-.271 0-.5.286-.5.625v.625h1.75c.414 0 .75.336.75.75 0 .415-.336.75-.75.75z" fill="#ff8f00"/><path d="m12 8.25c-.271 0-.5.286-.5.625v.625h.5zm0-8.25c-3.86 0-7 3.14-7 7s3.14 7 7 7v-3h-1.25c-.414 0-.75-.335-.75-.75v-1.375c0-1.172.897-2.125 2-2.125v-1.25h-1.25c-.414 0-.75-.335-.75-.75 0-.414.336-.75.75-.75h1.25z" fill="#dea806"/><path d="m12 6.75c-1.103 0-2 .953-2 2.125v1.375c0 .414.336.75.75.75h1.25v-1.5h-.5v-.625c0-.339.229-.625.5-.625zm0-2.75h-1.25c-.414 0-.75.336-.75.75s.336.75.75.75h1.25z" fill="#de7c00"/></svg>