<svg id="Capa_1" enable-background="new 0 0 512 512" height="512" viewBox="0 0 512 512" width="512" xmlns="http://www.w3.org/2000/svg"><g><g><g><g><g><g><g><path d="m299.56 154.744 37.98 104.09 168.853 168.853c4.077 4.077 4.102 10.688.047 14.787-21.993 22.228-44.169 44.276-66.231 66.436-4.091 4.109-10.736 4.121-14.836.021l-170.192-170.191h-21.948v-184.212l-21.152-21.059c-10.463-10.423-10.478-27.359-.036-37.802 10.429-10.429 27.338-10.429 37.767 0l33.331 33.331c7.283 7.282 12.886 16.07 16.417 25.746z" fill="#fdb0a0"/><path d="m506.349 427.648-168.807-168.808-37.987-104.097c-3.528-9.68-9.123-18.466-16.411-25.743l-33.326-33.337c-5.223-5.211-12.047-7.811-18.883-7.811s-13.672 2.6-18.883 7.811c-4.863 4.863-7.451 11.13-7.776 17.491.464-.035.928-.046 1.393-.046 6.836 0 13.672 2.6 18.883 7.823l33.337 33.326c7.277 7.289 12.883 16.075 16.411 25.743l37.987 104.097 26.22 26.22c-18.599 18.646-37.208 37.282-55.84 55.906l104.654 104.654c10.655-8.368 17.502-21.355 17.502-35.91v-27.497c0-11.379 13.758-17.078 21.805-9.032l61.877 61.877 17.844-17.844c4.094-4.094 4.094-10.73 0-14.823z" fill="#f69583"/></g><path d="m464.446 321.361c0 6.96-2.704 13.908-8.091 19.149-10.481 10.177-27.188 10.041-37.501-.294l-28.299-28.351c-3.301-3.302-8.951-.964-8.951 3.7v119.4c0 6.184-2.515 11.791-6.571 15.847-4.056 4.067-9.653 6.572-15.847 6.572-12.378 0-22.419-10.041-22.419-22.419v-12.001c0 12.651-10.481 22.859-23.237 22.408-12.147-.43-21.601-10.785-21.601-22.943v-11.498c0 6.194-2.516 11.791-6.572 15.847s-9.663 6.572-15.858 6.572c-12.378 0-22.419-10.041-22.419-22.419v-24.096c0 12.651-10.481 22.859-23.236 22.398-12.148-.43-21.602-10.785-21.602-22.943v-98.322c0-1.384-.556-2.725-1.53-3.7l-57.635-57.635c27.596-27.544 55.245-55.025 83.01-82.391l55.214 58.306c.556.587 1.247 1.038 2.013 1.32l102.924 37.553c9.674 3.532 18.467 9.129 25.752 16.413l44.639 44.649c5.217 5.222 7.817 12.055 7.817 18.878z" fill="#ffcec0"/><path d="m464.446 321.361c0 6.97-2.704 13.919-8.091 19.159-4.098 3.972-9.15 6.383-14.401 7.2.22-1.383.325-2.788.325-4.192 0-6.823-2.599-13.657-7.819-18.876l-44.639-44.649c-7.284-7.284-16.078-12.881-25.752-16.413l-95.272-34.766c-8.993-6.917-22.209-3.972-27.135 6.247-9.926 20.616-31.129 34.828-55.549 34.587-.01 0-.021 0-.021-.01l-21.853-21.853 59.962-59.962-20.417-21.56c7.431-7.358 14.862-14.694 22.304-22.021l55.203 58.296c.566.587 1.247 1.038 2.013 1.32l102.934 37.553c9.674 3.532 18.467 9.129 25.752 16.413l44.639 44.639c5.217 5.221 7.817 12.055 7.817 18.888z" fill="#fdb0a0"/><path d="m237.333 156.118-142.015-149.968c-30.034 30.033-56.331 56.33-86.364 86.363l145.681 145.681c27.477-27.448 55.013-54.838 82.698-82.076z" fill="#eff5f6"/><path d="m237.332 156.118-142.018-149.973c-8.018 8.018-64.345 64.353-86.36 86.369l103.279 103.279c14.855-14.795 29.712-29.587 44.547-44.402 8.949-8.937 23.487-8.788 32.238.343l25.644 26.761c7.546-7.473 15.103-14.925 22.67-22.377z" fill="#cbe5e7"/><path d="m154.635 238.194c27.477-27.448 55.013-54.838 82.698-82.076" style="fill:none;stroke:#000;stroke-width:15;stroke-linecap:round;stroke-linejoin:round;stroke-miterlimit:10"/><g><path d="m261.636 161.813-28.44-28.44c-2.005-2.005-5.255-2.005-7.259 0l-9.628 9.627c-2.005 2.005-2.005 5.255 0 7.259l28.44 28.44c2.005 2.005 5.255 2.005 7.259 0l9.628-9.628c2.004-2.004 2.004-5.254 0-7.258z" fill="#fddd45"/><path d="m252.006 178.703 9.633-9.633c2.004-2.003 2.004-5.256 0-7.259l-13.901-13.901c2.003 2.004 2.003 5.256 0 7.259l-9.633 9.633c-2.003 2.003-5.256 2.003-7.259 0l13.901 13.901c2.004 2.004 5.256 2.004 7.259 0z" fill="#f8c52d"/><path d="m244.749 178.7-28.44-28.44c-2.005-2.005-5.255-2.005-7.259 0l-9.628 9.628c-2.005 2.005-2.005 5.255 0 7.259l28.44 28.44c2.005 2.005 5.255 2.005 7.259 0l9.628-9.628c2.004-2.005 2.004-5.255 0-7.259z" fill="#fde784"/><path d="m235.122 195.588 9.625-9.625c2.011-2.011 2.004-5.256 0-7.259l-13.901-13.901c2.003 2.003 2.011 5.248 0 7.259l-9.625 9.625c-2.003 2.004-5.256 2.004-7.259 0l13.901 13.901c2.003 2.003 5.255 2.003 7.259 0z" fill="#fddd45"/></g><g><circle cx="186.725" cy="208.706" fill="#fddd45" r="40.424"/><path d="m227.153 208.705c0 22.236-17.945 40.273-40.15 40.427 12.452-6.888 20.881-20.162 20.881-35.397 0-22.328-18.099-40.427-40.427-40.427h-.277c5.79-3.203 12.452-5.03 19.546-5.03 22.329 0 40.427 18.098 40.427 40.427z" fill="#f8c52d"/></g><g><path d="m183.913 77.717-70.494-74.443c-4.057-4.284-10.849-4.376-15.021-.204l-92.795 92.794c-4.093 4.093-4.093 10.729 0 14.822l65.214 65.214c8.018 8.018 21.018 8.018 29.036 0l83.865-83.865c3.933-3.932 4.019-10.28.195-14.318z" fill="#3f5959"/><path d="m183.722 92.037-25.217 25.207c3.878-3.941 3.941-10.24.147-14.254l-77.906-82.266 17.653-17.654c4.172-4.172 10.965-4.08 15.022.205l70.489 74.445c3.826 4.035 3.742 10.386-.188 14.317z" fill="#384848"/></g><g><path d="m149.461 299c0 12.383 10.038 22.421 22.421 22.421h27.372c12.382 0 22.42-10.038 22.42-22.421 0-12.383-10.038-22.421-22.421-22.421h-27.372c-12.382.001-22.42 10.039-22.42 22.421z" fill="#f69583"/><path d="m221.679 298.995c0 12.384-10.039 22.423-22.423 22.423h-25.789c12.384 0 22.423-10.04 22.423-22.423 0-6.186-2.507-11.792-6.569-15.843-4.051-4.062-9.668-6.569-15.854-6.569h25.789c6.186 0 11.804 2.507 15.854 6.569 4.062 4.051 6.569 9.657 6.569 15.843z" fill="#ea806f"/></g><g><path d="m113.345 254.159c0 12.383 10.038 22.421 22.421 22.421h45.717c12.383 0 22.421-10.038 22.421-22.421 0-12.382-10.038-22.421-22.421-22.421h-45.717c-12.383.001-22.421 10.039-22.421 22.421z" fill="#fdb0a0"/><path d="m203.898 254.16c0 12.384-10.028 22.423-22.412 22.423h-25.789c12.384 0 22.423-10.039 22.423-22.423 0-6.186-2.507-11.804-6.569-15.854-4.062-4.062-9.656-6.569-15.854-6.569h25.789c6.198 0 11.792 2.507 15.854 6.569 4.051 4.05 6.558 9.668 6.558 15.854z" fill="#f9a08f"/></g><g><path d="m86.659 209.318c0 12.383 10.038 22.421 22.421 22.421h46.245c12.383 0 22.421-10.038 22.421-22.421 0-12.382-10.038-22.421-22.421-22.421h-46.245c-12.383.001-22.421 10.039-22.421 22.421z" fill="#f69583"/><path d="m177.749 209.313c0 12.384-10.039 22.423-22.423 22.423h-25.789c12.384 0 22.423-10.04 22.423-22.423 0-6.186-2.507-11.792-6.569-15.842-4.062-4.062-9.656-6.569-15.854-6.569h25.789c6.198 0 11.792 2.507 15.854 6.569 4.062 4.05 6.569 9.656 6.569 15.842z" fill="#ea806f"/></g><g><path d="m56.592 164.477c0 12.383 10.038 22.421 22.42 22.421h35.235c12.382 0 22.421-10.038 22.421-22.42 0-12.383-10.038-22.421-22.421-22.421h-35.234c-12.383 0-22.421 10.038-22.421 22.42z" fill="#fdb0a0"/><path d="m136.674 164.478c0 12.384-10.039 22.423-22.423 22.423h-25.789c12.384 0 22.423-10.039 22.423-22.423 0-6.198-2.507-11.792-6.569-15.854-4.051-4.062-9.668-6.569-15.854-6.569h25.789c6.186 0 11.804 2.507 15.854 6.569 4.062 4.062 6.569 9.656 6.569 15.854z" fill="#f9a08f"/></g></g></g><g><path d="m247.08 361.965v24.871c0 10.051-6.614 18.551-15.722 21.392v-46.263c0-4.339 3.522-7.861 7.861-7.861s7.861 3.522 7.861 7.861z" fill="#fdb0a0"/></g><g><path d="m291.928 373.106v37.826c0 6.194-2.516 11.791-6.572 15.847-2.526 2.526-5.649 4.454-9.15 5.555v-59.228c0-4.339 3.521-7.861 7.861-7.861 4.339.001 7.861 3.522 7.861 7.861z" fill="#fdb0a0"/></g><g><path d="m336.766 388.493v34.472c0 10.041-6.614 18.551-15.722 21.402v-55.874c0-4.339 3.521-7.861 7.861-7.861 4.339 0 7.861 3.521 7.861 7.861z" fill="#fdb0a0"/></g><g><path d="m389.999 311.373c-3.344-2.547-8.396-.22-8.396 4.192v119.4c0 6.184-2.515 11.791-6.571 15.847-2.526 2.536-5.649 4.465-9.15 5.555v-133.842c0-12.682 14.799-19.201 24.117-11.152z" fill="#fdb0a0"/></g></g></g></g></g></svg>