<?xml version="1.0" encoding="iso-8859-1"?>
<!-- Generator: Adobe Illustrator 19.0.0, SVG Export Plug-In . SVG Version: 6.00 Build 0)  -->
<svg version="1.1" id="Capa_1" xmlns="http://www.w3.org/2000/svg" xmlns:xlink="http://www.w3.org/1999/xlink" x="0px" y="0px"
	 viewBox="0 0 512 512" style="enable-background:new 0 0 512 512;" xml:space="preserve">
<circle style="fill:#FFC477;" cx="168.88" cy="66.61" r="59.11"/>
<g>
	<path style="fill:#FFA733;" d="M135.297,66.613c0-28.263,19.841-51.88,46.351-57.716C177.536,7.992,173.27,7.5,168.886,7.5
		c-32.647,0-59.113,26.466-59.113,59.113s26.466,59.113,59.113,59.113c4.384,0,8.65-0.492,12.762-1.397
		C155.138,118.492,135.297,94.876,135.297,66.613z"/>
	<rect x="246.18" y="224.44" style="fill:#FFA733;" width="206.91" height="39.3"/>
</g>
<rect x="246.18" y="224.44" style="fill:#FF6243;" width="47.3" height="39.3"/>
<rect x="327.62" y="263.74" style="fill:#ACABB1;" width="32.457" height="211.26"/>
<rect x="327.62" y="263.74" style="fill:#787680;" width="16.229" height="211.26"/>
<rect x="285.98" y="475" style="fill:#ACABB1;" width="115.75" height="29.5"/>
<rect x="285.98" y="475" style="fill:#787680;" width="35.673" height="29.5"/>
<path style="fill:#2488FF;" d="M109.773,328.403V214.997c-1.362,0-23.365-23.365-23.365-23.365H58.91v199.633h167.926v-62.863
	H109.773V328.403z"/>
<rect x="58.91" y="191.63" style="fill:#005ECE;" width="26.84" height="199.63"/>
<g>
	<rect x="197.16" y="391.27" style="fill:#ACABB1;" width="29.679" height="113.23"/>
	<rect x="58.91" y="391.27" style="fill:#ACABB1;" width="29.679" height="113.23"/>
</g>
<g>
	<rect x="58.91" y="391.27" style="fill:#787680;" width="14.84" height="113.23"/>
	<rect x="197.24" y="391.27" style="fill:#787680;" width="14.84" height="113.23"/>
</g>
<polygon style="fill:#FF6243;" points="181.476,185.838 181.476,125.725 142.873,125.725 142.873,224.441 265.798,224.441 
	265.798,185.838 "/>
<g>
	<rect x="142.87" y="125.72" style="fill:#C70024;" width="16.16" height="98.72"/>
	<rect x="181.48" y="125.72" style="fill:#C70024;" width="25.867" height="60.11"/>
</g>
<polygon style="fill:#FF6243;" points="207.343,273.657 207.343,224.441 142.873,224.441 142.873,125.725 133.29,125.725 
	110.081,148.934 109.773,328.403 226.836,328.403 226.836,421.371 274.54,421.371 274.54,273.657 "/>
<g>
	<polygon style="fill:#C70024;" points="142.873,136.062 142.873,125.725 133.29,125.725 110.081,148.934 109.773,328.403 
		129.693,328.403 130.001,148.934 	"/>
	<rect x="226.84" y="328.4" style="fill:#C70024;" width="19.92" height="92.97"/>
</g>
<polygon style="fill:#ACABB1;" points="363.858,102.071 363.858,200.131 265.798,200.131 265.798,224.441 388.168,224.441 
	388.168,102.071 "/>
<g>
	<rect x="363.86" y="102.07" style="fill:#787680;" width="13" height="98.06"/>
	<rect x="265.8" y="200.13" style="fill:#787680;" width="13" height="24.31"/>
</g>
<polygon style="fill:#FFFFFF;" points="257.761,7.5 257.761,77.445 294.856,77.445 309.744,92.333 324.633,77.445 361.727,77.445 
	361.727,7.5 "/>
<g>
	<rect x="257.76" y="7.5" style="fill:#ACABB1;" width="17.876" height="69.945"/>
	<polygon style="fill:#ACABB1;" points="312.732,77.445 294.856,77.445 309.744,92.333 318.682,83.395 	"/>
</g>
<g>
	<path style="fill:#FFFFFF;" d="M198.998,66.612c0,5.627-1.56,11.112-4.51,15.861l12.741,7.916
		c4.428-7.128,6.769-15.351,6.769-23.777c0-3.652-0.439-7.288-1.305-10.807l-14.565,3.584
		C198.705,61.736,198.998,64.167,198.998,66.612z"/>
	<path style="fill:#FFFFFF;" d="M195.208,51.975l13.102-7.305c-2.94-5.273-6.844-9.84-11.604-13.573L187.45,42.9
		C190.633,45.397,193.244,48.45,195.208,51.975z"/>
	<path style="fill:#FFFFFF;" d="M186.401,25.028c-5.554-2.341-11.447-3.528-17.516-3.528v15c4.057,0,7.989,0.791,11.688,2.351
		L186.401,25.028z"/>
</g>
<path style="fill:#1D1D1F;" d="M460.59,271.235v-54.294H238.676v54.294h81.445V467.5h-41.644V512h130.745v-44.5h-41.644V271.235
	H460.59z M253.676,256.235v-24.294H445.59v24.294H253.676z M394.222,482.5V497H293.477v-14.5H394.222z M352.578,467.5h-17.457
	V271.235h17.457V467.5z"/>
<g>
	<rect x="396.58" y="236.59" style="fill:#FFFFFF;" width="15" height="15"/>
	<rect x="343.85" y="236.59" style="fill:#FFFFFF;" width="42.728" height="15"/>
	<rect x="421.58" y="236.59" style="fill:#FFFFFF;" width="15" height="15"/>
</g>
<g>
	<path style="fill:#1D1D1F;" d="M309.745,102.939l17.994-17.994h41.489V0H250.261v84.945h41.489L309.745,102.939z M265.261,15
		h88.966v54.945h-32.702l-11.781,11.781l-11.782-11.781H265.26V15H265.261z"/>
	<polygon style="fill:#1D1D1F;" points="339.464,30.804 328.858,20.196 304.828,44.227 294.631,34.029 284.024,44.637 
		304.828,65.439 	"/>
	<path style="fill:#1D1D1F;" d="M282.041,428.871V283.735h-15v130.136h-32.705v-92.969h-117.05l0.29-168.856l17.797-17.797v97.692
		h64.47v49.215h26.333v-15h-11.333V231.94h11.333v-15h-75.803v-83.715h23.603v60.112h84.322v14.293h113.06v-98.06h9.31v94.869h15
		V94.571h-39.31v98.06h-83.06v-14.293h-58.455v-60.112h-3.903c14.976-12.225,24.558-30.819,24.558-51.613
		C235.498,29.882,205.616,0,168.885,0c-36.73,0-66.612,29.882-66.612,66.612c0,21.65,10.388,40.914,26.435,53.089l-26.121,26.12
		l-0.089,51.791l-12.85-13.48H51.41V512h44.68V398.766h93.567V512h44.679v-83.129H282.041z M188.976,178.338v-45.112h10.867v45.112
		H188.976z M117.273,66.612c0-28.459,23.153-51.612,51.612-51.612s51.613,23.153,51.613,51.612c0,28.46-23.153,51.613-51.613,51.613
		C140.426,118.226,117.273,95.072,117.273,66.612z M81.089,497H66.41v-98.234h14.68V497H81.089z M66.41,383.766V199.133h16.762
		c9.91,10.497,15.56,16.279,19.101,19.463v109.908l-0.013,7.398h117.076v12.176h-85.258v15h85.258v20.688H66.41z M219.336,497
		h-14.679v-98.234h14.679V497z"/>
</g>
<g>
</g>
<g>
</g>
<g>
</g>
<g>
</g>
<g>
</g>
<g>
</g>
<g>
</g>
<g>
</g>
<g>
</g>
<g>
</g>
<g>
</g>
<g>
</g>
<g>
</g>
<g>
</g>
<g>
</g>
</svg>
