<svg height="512pt" viewBox="-41 0 511 512" width="512pt" xmlns="http://www.w3.org/2000/svg"><path d="m421.996094 297.503906c0 114.324219-92.679688 207-207 207-114.324219 0-207-92.675781-207-207 0-114.324218 92.675781-207 207-207 114.320312 0 207 92.675782 207 207zm0 0" fill="#57a4ff"/><path d="m275.636719 54.191406h-121.28125c-1.464844-1.464844-2.285157-2.285156-3.75-3.746094v-39.203124c1.464843-1.460938 2.285156-2.285157 3.75-3.746094h121.28125c1.464843 1.460937 2.285156 2.285156 3.75 3.746094v39.203124c-1.464844 1.460938-2.285157 2.28125-3.75 3.746094zm0 0" fill="#57a4ff"/><path d="m181.683594 54.191406h66.625v35.121094h-66.625zm0 0" fill="#fff"/><path d="m371.585938 297.503906c0 86.480469-70.109376 156.589844-156.589844 156.589844-86.484375 0-156.589844-70.109375-156.589844-156.589844 0-86.480468 70.105469-156.589844 156.589844-156.589844 86.480468 0 156.589844 70.109376 156.589844 156.589844zm0 0" fill="#fff"/><path d="m214.996094 140.914062c86.34375 0 156.589844 70.246094 156.589844 156.589844h-156.589844zm0 0" fill="#ff3f62"/><path d="m37.976562 297.503906c0-109.28125 84.6875-198.773437 192.011719-206.457031-4.953125-.355469-9.949219-.542969-14.992187-.542969-114.324219 0-207 92.675782-207 207 0 114.320313 92.675781 207 207 207 5.042968 0 10.039062-.191406 14.992187-.546875-107.324219-7.679687-192.011719-97.171875-192.011719-206.453125zm0 0" fill="#2488ff"/><path d="m180.589844 11.242188c1.460937-1.460938 2.28125-2.28125 3.746094-3.746094h-29.980469c-1.464844 1.464844-2.285157 2.285156-3.75 3.746094v39.203124l3.75 3.746094h29.980469l-3.746094-3.746094zm0 0" fill="#2488ff"/><path d="m181.683594 54.191406h29.980468v35.121094h-29.980468zm0 0" fill="#c6c5ca"/><path d="m88.390625 297.503906c0-81.425781 62.148437-148.324218 141.597656-155.871094-4.9375-.46875-9.933593-.71875-14.992187-.71875-86.480469 0-156.589844 70.105469-156.589844 156.589844 0 86.480469 70.109375 156.589844 156.589844 156.589844 5.058594 0 10.054687-.25 14.992187-.71875-79.449219-7.546875-141.597656-74.445312-141.597656-155.871094zm0 0" fill="#c6c5ca"/><path d="m214.996094 140.914062v156.589844h29.980468v-153.695312c-9.707031-1.890625-19.726562-2.894532-29.980468-2.894532zm0 0" fill="#c70024"/><path d="m255.804688 86.875v-25.1875h22.9375l8.136718-8.140625v-45.40625l-8.136718-8.140625h-127.492188l-8.140625 8.140625v45.40625l8.140625 8.140625h22.9375v25.1875c-97.101562 18.601562-173.6875 104.261719-173.6875 210.628906 0 118.542969 95.933594 214.496094 214.496094 214.496094 118.542968 0 214.496094-95.933594 214.496094-214.496094 0-106.402344-76.617188-192.03125-173.6875-210.628906zm-97.703126-71.882812h113.789063v31.703124h-16.085937v-19.210937h-14.992188v19.210937h-18.320312v-19.210937h-14.992188v19.210937h-18.488281v-19.210937h-14.992188v19.210937h-15.917969zm82.710938 46.695312v20.128906h-51.632812v-20.128906zm-25.816406 435.320312c-110.007813 0-199.507813-89.496093-199.507813-199.503906 0-110.007812 89.5-199.503906 199.507813-199.503906 110.007812 0 199.503906 89.496094 199.503906 199.503906 0 110.007813-89.496094 199.503906-199.503906 199.503906zm0 0"/><path d="m214.996094 133.421875c-90.476563 0-164.085938 73.605469-164.085938 164.082031 0 90.476563 73.609375 164.085938 164.085938 164.085938 90.476562 0 164.082031-73.609375 164.082031-164.085938 0-90.476562-73.605469-164.082031-164.082031-164.082031zm99.941406 53.542969-25.269531 25.265625 10.601562 10.601562 25.265625-25.269531c23.949219 26.460938 38.554688 61.527344 38.554688 99.941406 0 38.414063-14.605469 73.480469-38.554688 99.941406l-25.265625-25.269531-10.601562 10.601563 25.269531 25.265625c-24.730469 22.382812-56.976562 36.601562-92.445312 38.367187v-35.808594h-14.992188v35.808594c-35.472656-1.765625-67.714844-15.984375-92.445312-38.367187l25.265624-25.265625-10.597656-10.601563-25.269531 25.269531c-22.378906-24.730468-36.597656-56.976562-38.363281-92.445312h35.804687v-14.992188h-35.804687c1.765625-35.46875 15.984375-67.714843 38.363281-92.445312l25.269531 25.269531 10.597656-10.601562-25.265624-25.265625c26.460937-23.949219 61.527343-38.554688 99.941406-38.554688 38.414062 0 73.480468 14.605469 99.941406 38.554688zm0 0"/><path d="m351.597656 290.007812h-129.105468v-129.105468h-14.992188v144.097656h144.097656zm0 0"/><path d="m324.4375 162.734375c-18.410156-15.191406-39.320312-26.195313-62.152344-32.707031l4.113282-14.417969c24.832031 7.082031 47.566406 19.046875 67.582031 35.5625zm-71.429688-35.074219c-4.644531-1.046875-9.398437-1.910156-14.128906-2.566406l2.0625-14.851562c5.144532.714843 10.3125 1.65625 15.363282 2.792968zm-23.652343-3.621094c-4.742188-.390624-9.574219-.589843-14.359375-.589843v-14.992188c5.195312 0 10.441406.214844 15.59375.640625zm0 0" fill="#fff"/></svg>